<?xml version="1.0" encoding="utf-8"?>
<!-- Generator: Adobe Illustrator 23.0.3, SVG Export Plug-In . SVG Version: 6.00 Build 0)  -->
<svg version="1.1" id="Layer_1" xmlns="http://www.w3.org/2000/svg" xmlns:xlink="http://www.w3.org/1999/xlink" x="0px" y="0px"
	 viewBox="0 0 448 512" style="enable-background:new 0 0 448 512;" xml:space="preserve">
<style type="text/css">
	.st0{fill:#FFFFFF;}
	.st1{fill:#231F20;}
</style>
<path class="st0" d="M416,32H31.9C14.3,32,0,46.5,0,64.3v383.4C0,465.5,14.3,480,31.9,480H416c17.6,0,32-14.5,32-32.3V64.3
	C448,46.5,433.6,32,416,32z"/>
<polygon class="st1" points="135.4,416 69,416 69,202.2 135.5,202.2 135.5,416 "/>
<circle class="st1" cx="102.2" cy="134.5" r="38.5"/>
<path class="st1" d="M384.3,416h-66.4V312c0-24.8-0.5-56.7-34.5-56.7c-34.6,0-39.9,27-39.9,54.9V416h-66.4V202.2h63.7v29.2h0.9
	c8.9-16.8,30.6-34.5,62.9-34.5c67.2,0,79.7,44.3,79.7,101.9V416z"/>
</svg>
